<svg width="420" height="250" viewBox="0 0 420 250" fill="none" xmlns="http://www.w3.org/2000/svg">
<mask id="mask0_0_6" style="mask-type:alpha" maskUnits="userSpaceOnUse" x="0" y="0" width="420" height="250">
<rect width="420" height="250" fill="#F8F8F8"/>
</mask>
<g mask="url(#mask0_0_6)">
<path fill-rule="evenodd" clip-rule="evenodd" d="M256.003 246.693L257.17 234.32H251.39L251.732 246.427L256.003 246.693Z" fill="url(#paint0_linear_0_6)"/>
<path d="M336.948 248.626H340.144L328.95 155.787H320.634L336.948 248.626Z" fill="#B3B3B3"/>
<path opacity="0.32" d="M325.564 183.809L320.645 155.787H328.962L331.321 175.336C330.011 178.369 327.947 181.204 325.564 183.809Z" fill="#B3B3B3"/>
<path d="M227.81 248.626H224.613L235.808 155.787H244.124L227.81 248.626Z" fill="#B3B3B3"/>
<path opacity="0.32" d="M231.974 187.605L235.808 155.798H244.124L239.795 180.406C237.589 183.114 234.923 185.522 231.974 187.605Z" fill="#B3B3B3"/>
<path d="M237.164 44.74H340.711V123.32H237.164V44.74Z" fill="#FCCB92"/>
<path d="M252.321 160.36C232.103 140.521 232.103 108.356 252.321 88.5174C272.54 68.6786 305.321 68.6786 325.539 88.5174C345.757 108.356 345.757 140.521 325.539 160.36C305.321 180.199 272.54 180.199 252.321 160.36Z" fill="#FCCB92"/>
<path d="M288.926 175.186H255.283C268.353 174.596 280.138 169.26 288.926 160.891V175.186Z" fill="#FCCB92"/>
<path d="M252.877 175.244C252.075 175.244 251.273 175.221 250.471 175.186H255.283C254.493 175.221 253.691 175.244 252.877 175.244Z" fill="#FCCB92"/>
<path d="M288.926 99.4415V160.879C280.138 169.248 268.342 174.595 255.283 175.174H250.47C222.997 173.936 201.104 151.701 201.104 124.431C201.104 115.345 203.546 106.815 207.816 99.43H288.926V99.4415Z" fill="#FCCB92"/>
<path d="M247.474 52.7497H330.389V123.32H247.474V52.7497Z" fill="#E39A46"/>
<path d="M235.029 161.701H280.421V106.71H215.318C204.312 124.443 216.922 153.495 235.029 161.701Z" fill="#E39A46"/>
<path d="M247.474 85.7604C256.144 80.4245 266.926 77.2646 278.616 77.2646C307.21 77.2646 330.389 96.1659 330.389 119.489C330.389 142.812 307.21 161.713 278.616 161.713C266.926 161.713 256.144 158.553 247.474 153.217V85.7604Z" fill="#E39A46"/>
<path d="M305.204 124.385C305.204 115.322 302.774 106.815 298.528 99.4532H333.598V139.328L329.245 154.178L316.175 156.875L301.04 158.472L288.926 160.891C299.294 154.363 305.204 137.499 305.204 124.385Z" fill="#FCCB92"/>
<path d="M315.502 248.626H318.699L307.505 155.787C303.128 155.787 299.766 159.606 300.403 163.854L315.502 248.626Z" fill="#C9C9C9"/>
<path d="M206.365 248.626H203.168L214.362 155.787C218.739 155.787 222.101 159.606 221.464 163.854L206.365 248.626Z" fill="#C9C9C9"/>
<path opacity="0.36" d="M217.913 183.797C215.577 186.054 212.982 188.022 210.257 189.828L214.362 155.787C218.739 155.787 222.101 159.606 221.464 163.854L217.913 183.797Z" fill="#C9C9C9"/>
<path opacity="0.36" d="M304.839 188.786L300.403 163.866C299.766 159.606 303.128 155.798 307.505 155.798L310.619 181.587C309.144 184.26 307.139 186.645 304.839 188.786Z" fill="#C9C9C9"/>
<path d="M259.011 241.589C259.011 241.589 272.116 186.645 272.116 163.495C272.116 140.346 257.253 141.052 253.006 150.404C248.76 159.757 251.555 241.439 251.555 241.439L259.011 241.589Z" fill="#4A4A4A"/>
<path d="M305.016 128.552C305.016 128.552 303.116 157.152 289.515 160.324C275.915 163.495 233.543 161.701 233.543 161.701L224.613 143.656L231.207 142.094L258.079 141.723L262.644 127.637L305.016 128.552Z" fill="#4A4A4A"/>
<path d="M298.528 99.4416H318.781C315.278 88.2142 301.311 54.6016 295.366 51.2218C289.421 47.8421 275.867 47.2981 270.948 51.9973C266.82 55.9443 262.892 65.9331 262.632 71.5815C261.382 98.3073 262.408 103.481 259.801 132.337C279.571 133.471 297.029 130.739 304.85 130.392C304.85 130.392 306.018 122.035 303.918 112.752C302.055 104.558 298.528 99.4416 298.528 99.4416Z" fill="white"/>
<path d="M277.565 62.6277L279.262 62.7045L275.96 132.584L274.264 132.507L277.565 62.6277Z" fill="#EDEDED"/>
<path d="M360.835 248.627H364.031L352.837 119.338H344.521L360.835 248.627Z" fill="#E39A46"/>
<path d="M97.05 108.678H435.752V119.35H97.05V108.678Z" fill="#D4D4D4"/>
<path d="M427.754 248.627H430.951L419.756 119.338H411.44L427.754 248.627Z" fill="#FCCB92"/>
<path d="M105.308 248.627H102.111L113.305 119.338H121.622L105.308 248.627Z" fill="#E39A46"/>
<path d="M172.239 248.627H169.042L180.224 119.338H188.541L172.239 248.627Z" fill="#FCCB92"/>
<path opacity="0.32" d="M355.668 108.678H435.752V119.35H361.943C360.044 115.658 358.027 112.023 355.668 108.678Z" fill="url(#paint1_linear_0_6)"/>
<path opacity="0.32" d="M327.676 108.678C330.035 112.093 332.123 115.669 334.046 119.35H304.343C302.68 115.796 301.017 112.243 299.294 108.713C299.294 108.701 299.283 108.69 299.283 108.678H327.676Z" fill="url(#paint2_linear_0_6)"/>
<path fill-rule="evenodd" clip-rule="evenodd" d="M283.145 36.6725L289.067 50.6778L278.333 60.493L275.101 52.032L279.583 39.2305L283.145 36.6725Z" fill="url(#paint3_linear_0_6)"/>
<path fill-rule="evenodd" clip-rule="evenodd" d="M278.05 18.8129C272.966 17.8175 268.047 20.387 267.28 24.8895C266.725 28.1304 267.056 33.4663 267.421 36.7188C267.716 39.2999 267.799 42.0894 269.002 44.4738C270.005 46.4646 271.939 48.4207 274.287 48.8027C276.728 49.1962 278.25 48.0966 280.031 46.5572C284.148 42.9806 285.399 38.8832 285.823 33.4084C286.283 27.3434 286.295 19.218 278.05 18.8129Z" fill="url(#paint4_linear_0_6)"/>
<path d="M269.273 53.9186C269.273 53.9186 244.643 80.8874 238.356 96.9645C236.48 101.756 239.429 105.055 244.23 105.298C253.03 105.75 272.116 78.179 272.116 78.179L269.273 53.9186Z" fill="white"/>
<path d="M229.78 99.6845C229.355 100.796 234.404 104.847 235.525 105.298C236.645 105.761 237.542 105.449 238.745 105.622C240.113 105.831 241.505 106.039 242.874 105.854C244.242 105.669 245.61 105.02 246.342 103.863C247.297 102.335 247.804 99.7539 246.896 98.2029C245.351 95.5871 241.93 91.6633 240.208 92.9018C236.74 95.3787 230.901 96.8024 229.78 99.6845Z" fill="url(#paint5_linear_0_6)"/>
<path fill-rule="evenodd" clip-rule="evenodd" d="M240.974 104.511C240.986 104.789 240.963 105.09 240.762 105.275C240.455 105.553 239.936 105.356 239.63 105.067C239.323 104.777 239.063 104.395 238.662 104.28C238.025 104.094 237.436 104.65 237.011 105.148C236.586 105.645 235.973 106.189 235.348 105.981C234.781 105.796 234.593 105.125 234.31 104.604C234.038 104.083 233.295 103.632 232.894 104.06C232.693 104.28 232.705 104.615 232.623 104.905C232.375 105.819 231.089 106.155 230.24 105.692C229.391 105.229 228.978 104.257 228.872 103.307C228.624 101.074 229.957 98.7586 232.033 97.7979C236.751 95.6566 240.809 100.205 240.974 104.511Z" fill="url(#paint6_linear_0_6)"/>
<path d="M298.41 55.8516C289.197 54.3701 299.117 108.666 299.117 108.666L306.396 108.308C315.007 104.592 314.724 103.863 313.414 98.4114C310.217 84.9733 303.907 56.7313 298.41 55.8516Z" fill="white"/>
<path d="M264.39 108.643L218.361 108.678L218.904 107.301C219.281 106.363 220.201 105.738 221.24 105.738H260.898C262.207 105.738 263.399 106.49 263.941 107.659L264.39 108.643Z" fill="#83B9EB"/>
<path d="M258.739 105.738V105.472C258.739 105.136 258.456 104.858 258.114 104.858H255.849C255.507 104.858 255.224 105.136 255.224 105.472V105.738H258.739Z" fill="#CEE3F7"/>
<path d="M253.561 105.738V105.472C253.561 105.136 253.278 104.858 252.936 104.858H250.671C250.329 104.858 250.046 105.136 250.046 105.472V105.738H253.561Z" fill="#CEE3F7"/>
<path d="M248.394 105.738V105.472C248.394 105.136 248.111 104.858 247.769 104.858H245.504C245.162 104.858 244.879 105.136 244.879 105.472V105.738H248.394Z" fill="#CEE3F7"/>
<path d="M243.216 105.738V105.472C243.216 105.136 242.933 104.858 242.59 104.858H240.326C239.984 104.858 239.7 105.136 239.7 105.472V105.738H243.216Z" fill="#CEE3F7"/>
<path d="M238.037 105.738V105.472C238.037 105.136 237.754 104.858 237.412 104.858H235.147C234.805 104.858 234.522 105.136 234.522 105.472V105.738H238.037Z" fill="#CEE3F7"/>
<path d="M232.87 105.738V105.472C232.87 105.136 232.587 104.858 232.245 104.858H229.98C229.638 104.858 229.355 105.136 229.355 105.472V105.738H232.87Z" fill="#CEE3F7"/>
<path d="M227.692 105.738V105.472C227.692 105.136 227.409 104.858 227.067 104.858H224.802C224.46 104.858 224.177 105.136 224.177 105.472V105.738H227.692Z" fill="#CEE3F7"/>
<path d="M143.692 89.9966H235.619C240.892 89.9966 245.162 85.8066 245.162 80.6327V31.024C245.162 25.8502 240.892 21.6602 235.619 21.6602H143.692C138.419 21.6602 134.149 25.8502 134.149 31.024V80.6327C134.149 85.8066 138.419 89.9966 143.692 89.9966Z" fill="#CEE3F7"/>
<path opacity="0.51" d="M169.608 54.1848C182.713 58.2475 195.654 58.8841 209.066 55.921C221.275 53.2241 232.859 48.849 245.15 47.4947V80.6328C245.15 85.8066 240.88 89.9966 235.607 89.9966H143.68C138.407 89.9966 134.137 85.8066 134.137 80.6328V40.9551C146.063 45.1451 157.824 50.5388 169.608 54.1848Z" fill="url(#paint7_linear_0_6)"/>
<path d="M189.567 68.9773L195.406 89.9967L173.489 90.124L172.368 79.5449L189.567 68.9773Z" fill="url(#paint8_linear_0_6)"/>
<path d="M207.922 108.678L205.834 107.231C203.604 105.692 200.95 104.87 198.225 104.87H183.303C183.303 104.87 175.022 95.0199 181.605 85.8528H165.043C165.043 85.8528 156.337 91.7906 163.981 104.87H156.337V108.643L207.922 108.678Z" fill="#83B9EB"/>
<path d="M181.605 85.853C181.605 85.853 186.995 81.1769 188.541 77.2647C190.098 73.3525 189.567 68.9773 189.567 68.9773H172.581C172.581 68.9773 173.595 73.6418 171.944 77.4151C171.307 78.8735 165.043 85.853 165.043 85.853H181.605Z" fill="#84BBF0"/>
<path fill-rule="evenodd" clip-rule="evenodd" d="M274.393 103.597C269.898 103.296 265.133 102.706 261.075 104.65C260.839 104.766 260.603 104.882 260.343 104.858C260.084 104.835 259.824 104.615 259.883 104.372C259.919 104.233 260.037 104.129 260.155 104.025C260.969 103.389 261.771 102.74 262.585 102.104C261.877 102 261.181 102.358 260.638 102.821C260.096 103.284 259.647 103.84 259.081 104.257C258.503 104.673 257.737 104.928 257.076 104.673C256.415 104.407 256.05 103.47 256.557 102.972C256.132 103.25 255.696 103.516 255.271 103.794C254.681 104.164 254.068 104.546 253.372 104.662C252.676 104.777 251.874 104.534 251.544 103.933C251.119 103.157 251.614 102.196 252.192 101.513C254.634 98.6082 258.574 97.254 262.408 97.0225C266.242 96.791 270.052 97.5318 273.838 98.1452C277.625 98.7587 281.517 99.2448 285.28 98.4925C286.212 98.3073 287.132 98.0411 288.088 97.9948C289.032 97.9485 290.046 98.1452 290.754 98.7587C291.686 99.5689 291.898 100.888 291.827 102.046C291.745 103.423 290.541 103.273 289.397 103.388C286.236 103.689 283.063 103.828 279.89 103.805C278.038 103.794 276.209 103.724 274.393 103.597Z" fill="url(#paint9_linear_0_6)"/>
<path d="M313.426 100.495C314.688 104.199 313.438 105.981 310.312 108.065C307.186 110.148 279.323 105.888 279.323 105.888V98.203C279.323 98.203 310.666 92.3462 313.426 100.495Z" fill="url(#paint10_linear_0_6)"/>
<path d="M290.99 108.609H302.456L304.154 89.9851H289.291L290.99 108.609Z" fill="#FFCF4A"/>
<path fill-rule="evenodd" clip-rule="evenodd" d="M205.669 246.45L205.893 244.101L209.408 234.563H203.628L201.34 244.402L201.387 246.184L205.669 246.45Z" fill="url(#paint11_linear_0_6)"/>
<path d="M256.227 244.101L255.708 248.626H234.51C234.51 248.626 233.968 247.041 235.867 245.895C237.754 244.749 256.227 244.101 256.227 244.101Z" fill="#83B9EB"/>
<path d="M206.129 244.101L205.61 248.626H184.412C184.412 248.626 183.869 247.041 185.769 245.895C187.656 244.749 206.129 244.101 206.129 244.101Z" fill="#83B9EB"/>
<path d="M208.122 241.589C208.122 241.589 232.387 183.728 237.329 159.872C242.272 136.017 222.325 139.362 218.22 151.365C212.593 167.778 200.231 241.589 200.231 241.589H208.122Z" fill="#4A4A4A"/>
<path d="M387.081 67.3799H401.519V108.666H387.081V67.3799Z" fill="#83B9EB"/>
<path d="M390.408 71.6971H398.193V94.2329H390.408V71.6971Z" fill="white"/>
<path d="M396.777 100.877C396.777 99.5341 395.669 98.4461 394.3 98.4461C392.932 98.4461 391.823 99.5341 391.823 100.877C391.823 102.219 392.932 103.307 394.3 103.307C395.669 103.307 396.777 102.219 396.777 100.877Z" fill="#4A4A4A"/>
<path d="M372.654 67.3799H387.093V108.666H372.654V67.3799Z" fill="#FFCF4A"/>
<path d="M375.981 71.6971H383.766V94.2329H375.981V71.6971Z" fill="white"/>
<path d="M382.351 100.877C382.351 99.5341 381.242 98.4461 379.874 98.4461C378.505 98.4461 377.396 99.5341 377.396 100.877C377.396 102.219 378.505 103.307 379.874 103.307C381.242 103.307 382.351 102.219 382.351 100.877Z" fill="#4A4A4A"/>
<path d="M401.52 67.3799H415.958V108.666H401.52V67.3799Z" fill="#F08365"/>
<path d="M404.846 71.6971H412.631V94.2329H404.846V71.6971Z" fill="white"/>
<path d="M411.216 100.877C411.216 99.5341 410.107 98.4461 408.739 98.4461C407.37 98.4461 406.261 99.5341 406.261 100.877C406.261 102.219 407.37 103.307 408.739 103.307C410.107 103.307 411.216 102.219 411.216 100.877Z" fill="#4A4A4A"/>
<path d="M403.419 201.784C406.934 201.784 410.968 197.583 415.71 188.983C423.956 174.051 421.113 167.859 418.6 162.407C417.291 159.548 416.147 157.083 416.583 153.564C417.338 147.499 424.557 146.423 431.541 145.393C436.059 144.721 440.317 144.085 442.629 142.059C455.864 130.404 447.288 118.956 447.194 118.841L446.828 118.366L446.25 118.551C399.361 133.83 395.362 164.942 398.016 196.286L398.04 196.425C398.087 196.622 399.349 201.321 402.888 201.749C403.065 201.773 403.242 201.784 403.419 201.784ZM446.191 120.334C447.583 122.51 452.207 131.399 441.508 140.821C439.574 142.522 435.563 143.113 431.305 143.749C424.05 144.826 415.828 146.052 414.92 153.368C414.424 157.349 415.769 160.266 417.067 163.09C419.532 168.449 422.08 173.982 414.236 188.184C408.267 198.995 404.704 200.291 403.112 200.094C400.894 199.828 399.856 196.552 399.715 196.066C396.73 160.845 403.525 134.455 446.191 120.334Z" fill="#6AAEF0"/>
<path d="M401.932 201.483L402.227 199.84C399.396 199.353 394.808 192.837 393.958 189.619C390.455 176.355 391.139 169.804 391.917 162.199C392.224 159.19 392.554 156.076 392.672 152.291C392.991 142.082 398.842 140.45 403.537 139.131C405.377 138.622 406.969 138.17 408.019 137.267C408.963 136.457 410.39 134.524 412.384 131.85C416.418 126.422 422.505 118.227 427.683 115.727C435.221 112.093 442.806 114.928 445.79 119.767L447.241 118.898C443.856 113.412 435.339 110.171 426.928 114.222C421.384 116.896 415.38 124.964 411.004 130.855C409.222 133.251 407.689 135.323 406.887 136.006C406.12 136.665 404.693 137.059 403.053 137.522C398.382 138.83 391.316 140.798 390.962 152.233C390.844 155.972 390.526 159.051 390.219 162.025C389.417 169.78 388.721 176.47 392.295 190.024C393.215 193.462 398.004 200.8 401.932 201.483Z" fill="#6AAEF0"/>
<path d="M434.124 144.953L434.372 143.298C417.692 140.948 413.08 138.598 413.044 138.575L412.23 140.034C412.407 140.138 417.02 142.545 434.124 144.953Z" fill="#6AAEF0"/>
<path d="M406.629 136.55L408.314 136.762L406.754 148.691L405.069 148.479L406.629 136.55Z" fill="#6AAEF0"/>
<path d="M398.511 178.485C411.582 176.494 418.883 165.81 419.19 165.359L417.775 164.445C417.704 164.549 410.555 174.966 398.252 176.841L398.511 178.485Z" fill="#6AAEF0"/>
<path d="M404.846 176.933C401.626 169.827 395.267 164.421 392.153 157.268C389.924 152.152 389.511 146.469 389.287 140.902C389.063 135.334 388.968 129.686 387.329 124.362C385.689 119.037 382.209 113.956 377.007 111.745C371.793 109.534 364.81 111.074 362.12 115.982C360.233 119.419 360.74 123.655 361.849 127.406C363.819 134.049 367.547 140.149 368.927 146.944C370.425 154.34 369.045 162.048 370.177 169.514C371.18 176.158 374.152 182.35 377.267 188.334C379.048 191.737 380.912 195.152 383.507 198.011C386.102 200.87 389.523 203.161 393.38 203.728C407.948 205.893 408.939 185.95 404.846 176.933Z" fill="#D4EAFF"/>
<path opacity="0.45" d="M362.11 115.981C364.611 111.409 370.863 109.766 375.911 111.351C370.403 111.918 365.283 116.305 365.896 122.324C366.392 127.266 370.509 130.611 373.882 133.841C379.202 138.922 383.119 145.265 382.553 152.777C382.081 159.004 379.379 165.115 380.429 171.435C381.078 175.278 383.272 178.843 385.891 181.713C390.822 187.119 400.141 190.718 404.706 182.894C405.189 182.072 405.602 181.123 405.944 180.116C408.563 189.92 406.404 205.673 393.358 203.728C389.5 203.149 386.08 200.869 383.484 198.01C380.889 195.151 379.025 191.737 377.244 188.334C374.13 182.35 371.157 176.157 370.155 169.514C369.022 162.048 370.414 154.339 368.904 146.943C367.524 140.16 363.808 134.049 361.827 127.405C360.718 123.643 360.222 119.419 362.11 115.981Z" fill="url(#paint12_linear_0_6)"/>
<path d="M389.936 217.444C390.207 217.444 390.467 217.317 390.632 217.097C396.907 208.416 398.818 196.703 395.598 186.529C394.277 182.327 392.142 178.403 390.077 174.618C388.095 170.972 386.043 167.199 384.769 163.241C383.129 158.194 382.705 152.766 382.292 147.511C382.186 146.133 382.079 144.744 381.95 143.379C381.348 136.989 380.169 129.651 375.981 123.748C375.71 123.366 375.191 123.273 374.801 123.54C374.412 123.806 374.318 124.327 374.589 124.697C378.552 130.288 379.673 137.348 380.263 143.529C380.393 144.895 380.499 146.272 380.605 147.638C381.03 152.985 381.466 158.518 383.165 163.75C384.498 167.847 386.586 171.69 388.603 175.405C390.62 179.132 392.72 182.975 393.994 187.026C397.049 196.714 395.232 207.872 389.263 216.136C388.992 216.507 389.086 217.028 389.464 217.294C389.594 217.398 389.771 217.444 389.936 217.444Z" fill="white"/>
<path d="M381.053 143.842C381.442 143.842 381.785 143.587 381.879 143.193C381.985 142.742 381.702 142.302 381.242 142.198L366.898 138.957C366.438 138.853 365.99 139.131 365.883 139.582C365.777 140.034 366.06 140.473 366.52 140.578L380.864 143.818C380.923 143.83 380.994 143.842 381.053 143.842Z" fill="white"/>
<path d="M381.053 152.164C381.466 152.164 381.832 151.863 381.891 151.446C381.961 150.995 381.631 150.566 381.171 150.509L369.469 148.865C369.009 148.807 368.573 149.12 368.514 149.571C368.443 150.022 368.773 150.451 369.233 150.509L380.935 152.152C380.971 152.164 381.018 152.164 381.053 152.164Z" fill="white"/>
<path d="M388.072 173.496C388.414 173.496 388.732 173.299 388.862 172.975L393.935 160.451C394.111 160.023 393.899 159.537 393.463 159.375C393.026 159.213 392.531 159.409 392.366 159.838L387.293 172.361C387.116 172.79 387.329 173.276 387.765 173.438C387.86 173.484 387.966 173.496 388.072 173.496Z" fill="white"/>
<path d="M377.219 247.747H421.726L424.274 220.917L426.822 194.087H372.124L374.672 220.917L377.219 247.747Z" fill="#6AAEF0"/>
<path opacity="0.6" d="M395.503 227.711C401.555 221.727 404.268 213.428 409.777 207.051C414.212 201.923 420.098 199.643 426.386 198.659L424.274 220.917L421.726 247.747H377.219L376.287 237.92C383.035 234.968 390.101 233.059 395.503 227.711Z" fill="url(#paint13_linear_0_6)"/>
<path d="M132.273 105.842H137.31C138.997 105.842 140.46 104.72 140.861 103.111L141.958 98.7586C142.229 97.6821 141.981 96.5594 141.285 95.6913C140.59 94.8116 139.54 94.3139 138.407 94.3139H134.267L132.273 105.842ZM138.395 95.9807C138.997 95.9807 139.563 96.2469 139.941 96.7215C140.318 97.1844 140.448 97.7863 140.306 98.365L139.209 102.717C138.997 103.574 138.207 104.175 137.31 104.175H134.29L135.706 95.9807H138.395Z" fill="#F08365"/>
<path d="M121.527 108.678H135.222L139.162 90.7489H122.081L121.527 108.678Z" fill="#F08365"/>
<path opacity="0.68" d="M125.903 102.08C127.496 100.726 128.416 98.9438 129.525 97.2307C131.731 93.851 134.255 92.2305 137.888 90.7374H139.162L135.222 108.666H121.527L121.669 104.129C123.178 103.724 124.629 103.157 125.903 102.08Z" fill="url(#paint14_linear_0_6)"/>
<path d="M287.781 33.7441C288.418 30.5264 288.406 25.1094 287.25 23.1649C285.552 20.2828 282.567 18.5235 279.3 17.9795C275.442 17.3313 272.246 17.0535 269.261 14.4955C267.633 13.095 264.92 11.4283 262.62 12.1922C258.857 13.4538 258.491 21.9496 260.603 24.6465C263.009 27.7369 269.556 31.1514 273.673 30.3296C276.846 29.693 280.161 28.5587 282.532 26.1743C283.57 29.1837 280.55 34.1376 282.06 37.0776C284.101 41.0245 286.826 38.5475 287.781 33.7441Z" fill="#4A4A4A"/>
<path d="M126.446 87.3807C126.705 87.67 127.166 87.6932 127.484 87.4732L127.826 87.1029C127.968 86.8251 127.873 86.4315 127.508 86.0496C126.316 84.8111 124.724 84.0356 123.19 83.3295C122.565 83.0402 121.916 82.7508 121.279 82.4615C116.502 80.3086 111.547 78.0747 108.752 73.9194C105.272 68.7456 106.393 60.9906 111.194 56.9742C115.782 53.1314 123.296 53.0851 128.015 56.7543C128.369 57.0321 128.876 57.0089 129.183 56.6848C129.513 56.3376 129.489 55.782 129.112 55.4811C122.14 49.9947 110.226 51.673 106.381 60.7475C103.715 67.0441 105.39 74.1625 110.745 78.5145C113.612 80.841 117.127 82.4267 120.572 83.9893C121.209 84.2787 121.845 84.5565 122.471 84.8458C123.922 85.5056 125.42 86.2579 126.446 87.3807Z" fill="#E3EFFA"/>
<path d="M132.757 71.13C142.76 71.3847 151.513 63.8612 152.468 54.0806C153.565 42.8186 144.541 33.3042 133.288 33.3042C128.958 33.3042 124.747 34.7395 121.362 37.3553C120.984 37.6447 120.949 38.2003 121.256 38.5591C121.55 38.8948 122.07 38.9295 122.423 38.6517C127.307 34.89 134.031 33.8251 140.177 36.3368C146.086 38.7559 150.191 44.3233 150.781 50.5851C151.749 60.8286 143.527 69.4633 133.288 69.4633C130.822 69.4633 128.463 68.9772 126.245 68.028C125.821 67.8428 125.337 68.0049 125.137 68.41C124.924 68.8267 125.101 69.3591 125.538 69.5443C127.814 70.5282 130.232 71.0606 132.757 71.13Z" fill="#E3EFFA"/>
<path d="M1.18143 249.784H418.819C419.468 249.784 420 249.263 420 248.626C420 247.99 419.468 247.469 418.819 247.469H1.18143C0.531647 247.469 0 247.99 0 248.626C0 249.263 0.531647 249.784 1.18143 249.784Z" fill="#D4EAFF"/>
</g>
<defs>
<linearGradient id="paint0_linear_0_6" x1="254.432" y1="245.021" x2="254.218" y2="228.777" gradientUnits="userSpaceOnUse">
<stop stop-color="#FFB08E"/>
<stop offset="1" stop-color="#FFBDA1"/>
</linearGradient>
<linearGradient id="paint1_linear_0_6" x1="329.052" y1="114.007" x2="46.4377" y2="114.007" gradientUnits="userSpaceOnUse">
<stop stop-color="white"/>
<stop offset="1" stop-color="#F2F2F2"/>
</linearGradient>
<linearGradient id="paint2_linear_0_6" x1="329.052" y1="114.007" x2="46.4383" y2="114.007" gradientUnits="userSpaceOnUse">
<stop stop-color="white"/>
<stop offset="1" stop-color="#F2F2F2"/>
</linearGradient>
<linearGradient id="paint3_linear_0_6" x1="282.165" y1="57.2082" x2="281.755" y2="26.1618" gradientUnits="userSpaceOnUse">
<stop stop-color="#F09B76"/>
<stop offset="1" stop-color="#FFB291"/>
</linearGradient>
<linearGradient id="paint4_linear_0_6" x1="279.311" y1="43.9188" x2="270.554" y2="5.9847" gradientUnits="userSpaceOnUse">
<stop stop-color="#FFB08E"/>
<stop offset="1" stop-color="#FFBDA1"/>
</linearGradient>
<linearGradient id="paint5_linear_0_6" x1="239.169" y1="100.408" x2="250.825" y2="95.5471" gradientUnits="userSpaceOnUse">
<stop stop-color="white"/>
<stop offset="1" stop-color="#F2F2F2"/>
</linearGradient>
<linearGradient id="paint6_linear_0_6" x1="234.928" y1="104.838" x2="234.777" y2="93.3635" gradientUnits="userSpaceOnUse">
<stop stop-color="#FFB08E"/>
<stop offset="1" stop-color="#FFBDA1"/>
</linearGradient>
<linearGradient id="paint7_linear_0_6" x1="189.653" y1="86.0294" x2="189.653" y2="34.587" gradientUnits="userSpaceOnUse">
<stop stop-color="white"/>
<stop offset="0.1113" stop-color="#F5F9FF"/>
<stop offset="0.4616" stop-color="#D9EAFF"/>
<stop offset="0.7695" stop-color="#C8E1FF"/>
<stop offset="1" stop-color="#C2DEFF"/>
</linearGradient>
<linearGradient id="paint8_linear_0_6" x1="183.887" y1="92.618" x2="183.887" y2="66.7786" gradientUnits="userSpaceOnUse">
<stop stop-color="white"/>
<stop offset="0.1113" stop-color="#F5F9FF"/>
<stop offset="0.4616" stop-color="#D9EAFF"/>
<stop offset="0.7695" stop-color="#C8E1FF"/>
<stop offset="1" stop-color="#C2DEFF"/>
</linearGradient>
<linearGradient id="paint9_linear_0_6" x1="271.61" y1="103.645" x2="271.475" y2="93.3873" gradientUnits="userSpaceOnUse">
<stop stop-color="#FFB08E"/>
<stop offset="1" stop-color="#FFBDA1"/>
</linearGradient>
<linearGradient id="paint10_linear_0_6" x1="303.017" y1="102.404" x2="274.154" y2="102.404" gradientUnits="userSpaceOnUse">
<stop stop-color="white"/>
<stop offset="1" stop-color="#F2F2F2"/>
</linearGradient>
<linearGradient id="paint11_linear_0_6" x1="205.448" y1="244.831" x2="205.243" y2="229.266" gradientUnits="userSpaceOnUse">
<stop stop-color="#FFB08E"/>
<stop offset="1" stop-color="#FFBDA1"/>
</linearGradient>
<linearGradient id="paint12_linear_0_6" x1="383.887" y1="217.209" x2="383.887" y2="79.45" gradientUnits="userSpaceOnUse">
<stop stop-color="white"/>
<stop offset="0.1113" stop-color="#F5F9FF"/>
<stop offset="0.4616" stop-color="#D9EAFF"/>
<stop offset="0.7695" stop-color="#C8E1FF"/>
<stop offset="1" stop-color="#C2DEFF"/>
</linearGradient>
<linearGradient id="paint13_linear_0_6" x1="401.335" y1="254.096" x2="401.335" y2="188.5" gradientUnits="userSpaceOnUse">
<stop stop-color="white"/>
<stop offset="0.1113" stop-color="#F5F9FF"/>
<stop offset="0.4616" stop-color="#D9EAFF"/>
<stop offset="0.7695" stop-color="#C8E1FF"/>
<stop offset="1" stop-color="#C2DEFF"/>
</linearGradient>
<linearGradient id="paint14_linear_0_6" x1="130.349" y1="110.792" x2="130.349" y2="88.8789" gradientUnits="userSpaceOnUse">
<stop stop-color="white"/>
<stop offset="0.1113" stop-color="#FFF5F5"/>
<stop offset="0.4616" stop-color="#FFD9DB"/>
<stop offset="0.7695" stop-color="#FFC8CC"/>
<stop offset="1" stop-color="#FFC2C6"/>
</linearGradient>
</defs>
</svg>
